<svg version="1.1" xmlns="http://www.w3.org/2000/svg" xmlns:xlink="http://www.w3.org/1999/xlink" width="599.7094" height="371.92499" viewBox="0,0,599.7094,371.92499"><g transform="translate(-20.1453,5.96249)"><g data-paper-data="{&quot;isPaintingLayer&quot;:true}" fill-rule="nonzero" stroke-linejoin="miter" stroke-miterlimit="10" stroke-dasharray="" stroke-dashoffset="0" style="mix-blend-mode: normal"><path d="M20.1453,365.96249v-371.92499h599.7094v371.92499z" fill="#b1c7bb" stroke="none" stroke-width="0" stroke-linecap="butt"/><path d="M222.79673,90.6412c0,0 6.45139,-3.89744 15.44988,-8.19293" fill="none" stroke="#ffffff" stroke-width="8" stroke-linecap="round"/><path d="M256.67738,74.93538c3.78015,-1.23422 7.58105,-2.24971 11.22825,-2.89012c4.24978,-0.74622 10.00558,-0.12583 14.33447,0.78003" fill="none" stroke="#ffffff" stroke-width="8" stroke-linecap="round"/><path d="M298.68522,84.53319c0.40796,0.6578 0.78865,1.33945 1.13523,2.04319c1.23208,2.50181 2.41144,5.28297 3.56891,8.26555" fill="none" stroke="#ffffff" stroke-width="8" stroke-linecap="round"/><path d="M315.52474,128.87564c-1.98097,-5.03318 -3.78798,-10.19607 -5.5163,-15.24786" fill="none" stroke-opacity="0.76471" stroke="#ffffff" stroke-width="8" stroke-linecap="round"/><path d="M334.25849,159.67659c-3.84383,-3.41853 -7.16409,-7.75862 -10.10132,-12.66503" fill="none" stroke-opacity="0.70196" stroke="#ffffff" stroke-width="8" stroke-linecap="round"/><path d="M370.35532,169.42111c-5.7886,0.63362 -11.99904,0.52653 -18.16209,-0.94982" fill="none" stroke-opacity="0.59608" stroke="#ffffff" stroke-width="8" stroke-linecap="round"/><path d="M398.78581,160.9004c0,0 -3.50856,2.00694 -9.13592,4.15913" fill="none" stroke-opacity="0.50196" stroke="#ffffff" stroke-width="8" stroke-linecap="round"/><path d="M209.17096,81.52375v24.33591c0,1.8592 -0.84651,3.3715 -1.88836,3.3715h-26.84327c-1.04076,0 -1.88799,-1.5123 -1.88799,-3.3715v-24.33656c0,-1.8592 0.84723,-3.3715 1.88799,-3.3715h26.84327c1.04185,0 1.88836,1.51295 1.88836,3.37215z" fill="#5293d4" stroke="#3d6c9c" stroke-width="3" stroke-linecap="butt"/><path d="M447.40161,150.21203v24.33591c0,1.85921 -0.84651,3.37151 -1.88836,3.37151h-26.84328c-1.04076,0 -1.88799,-1.5123 -1.88799,-3.37151v-24.33656c0,-1.85921 0.84723,-3.37151 1.88799,-3.37151h26.84328c1.04184,0 1.88836,1.51295 1.88836,3.37216z" fill-opacity="0.49804" fill="#5393d4" stroke-opacity="0.49804" stroke="#3d6c9c" stroke-width="3" stroke-linecap="butt"/><text transform="translate(142.35398,261.17956) scale(1.30125,1.30125)" font-size="40" xml:space="preserve" fill-opacity="0.38039" fill="#5393d4" fill-rule="nonzero" stroke="#5293d4" stroke-width="1" stroke-linecap="butt" stroke-linejoin="miter" stroke-miterlimit="10" stroke-dasharray="" stroke-dashoffset="0" font-family="Handwriting" font-weight="normal" text-anchor="start" style="mix-blend-mode: normal"><tspan x="0" dy="0">NonlinearMotion</tspan></text></g></g></svg>